<svg width="63" height="29" viewBox="0 0 63 29" fill="none" xmlns="http://www.w3.org/2000/svg">
<path d="M-18.8992 6.95555C-12.4992 7.65555 -6.09927 8.25555 0.300732 8.95555C3.70073 9.25555 7.20074 9.65556 10.4007 8.65556C13.1007 7.75556 15.5007 6.05556 18.0007 4.65556C23.4007 1.75556 29.7007 0.955555 35.8007 0.355555C42.4007 -0.244445 49.4008 -0.444444 55.2008 2.75556C61.0008 5.95556 64.8007 13.7556 61.4007 19.4556C59.8007 22.1556 57.0008 23.8556 54.2008 25.0556C45.6008 28.8556 35.6007 29.5556 26.5007 26.8556C23.1007 25.8556 19.8007 24.3556 16.3007 23.7556C6.00073 21.9556 -3.99925 27.9556 -14.3992 28.3556C-21.6992 28.6556 -29.0992 25.8556 -34.7992 21.3556C-40.3992 16.8556 -38.1993 10.1556 -31.6993 7.65556C-27.6993 6.05556 -23.1992 6.55555 -18.8992 6.95555Z" fill="url(#paint0_linear)"/>
<defs>
<linearGradient id="paint0_linear" x1="12.7205" y1="24.3483" x2="12.7205" y2="-1.78381e-07" gradientUnits="userSpaceOnUse">
<stop stop-color="#CAF5FF"/>
<stop offset="1" stop-color="#84FFE9"/>
</linearGradient>
</defs>
</svg>
