<svg width="160" height="35" viewBox="0 0 160 35" fill="none" xmlns="http://www.w3.org/2000/svg">
<path d="M73.4253 3.47121C83.5253 1.67121 93.9253 -1.82879 103.725 1.17121C109.825 2.97121 115.025 7.17121 121.225 8.27121C128.125 9.47121 135.025 6.67121 142.025 5.77121C149.025 4.87121 157.525 7.17121 159.525 13.8712C160.825 18.0712 158.825 22.7712 155.525 25.6712C152.225 28.5712 147.825 29.9712 143.525 30.5712C127.425 32.7712 111.025 25.6712 95.0252 28.6712C90.0252 29.5712 85.2253 31.4712 80.2253 32.6712C68.2253 35.4712 55.7252 33.9712 43.5252 32.3712C33.7252 31.1712 23.9253 29.8712 14.1253 28.6712C8.82525 27.9712 1.52526 26.7712 0.225257 20.5712C-0.774743 15.7712 1.62524 12.6712 6.02524 10.9712C19.0252 5.87121 34.0253 6.17121 47.6253 5.67121C56.3253 5.27121 64.9253 4.97121 73.4253 3.47121Z" fill="url(#paint0_linear)"/>
<defs>
<linearGradient id="paint0_linear" x1="80.5643" y1="29.2665" x2="80.5643" y2="-2.14413e-07" gradientUnits="userSpaceOnUse">
<stop stop-color="#CAF5FF"/>
<stop offset="1" stop-color="#84FFE9"/>
</linearGradient>
</defs>
</svg>
