<svg width="101" height="29" viewBox="0 0 101 29" fill="none" xmlns="http://www.w3.org/2000/svg">
<path d="M19.1008 6.95555C25.5008 7.65555 31.9007 8.25555 38.3007 8.95555C41.7007 9.25555 45.2007 9.65556 48.4007 8.65556C51.1007 7.75556 53.5007 6.05556 56.0007 4.65556C61.4007 1.75556 67.7007 0.955555 73.8007 0.355555C80.4007 -0.244445 87.4008 -0.444444 93.2008 2.75556C99.0008 5.95556 102.801 13.7556 99.4007 19.4556C97.8007 22.1556 95.0008 23.8556 92.2008 25.0556C83.6008 28.8556 73.6007 29.5556 64.5007 26.8556C61.1007 25.8556 57.8007 24.3556 54.3007 23.7556C44.0007 21.9556 34.0008 27.9556 23.6008 28.3556C16.3008 28.6556 8.90076 25.8556 3.20076 21.3556C-2.39924 16.8556 -0.199267 10.1556 6.30073 7.65556C10.3007 6.05556 14.8008 6.55555 19.1008 6.95555Z" fill="url(#paint0_linear)"/>
<defs>
<linearGradient id="paint0_linear" x1="50.7205" y1="24.3483" x2="50.7205" y2="-1.78381e-07" gradientUnits="userSpaceOnUse">
<stop stop-color="#CAF5FF"/>
<stop offset="1" stop-color="#84FFE9"/>
</linearGradient>
</defs>
</svg>
