<svg width="133" height="31" viewBox="0 0 133 31" fill="none" xmlns="http://www.w3.org/2000/svg">
<path d="M2.49681 8.90678C8.8459 3.05012 25.5449 1.75821 31.0242 1.84434C39.4607 1.93046 47.6362 4.94492 56.1597 4.16977C63.9003 3.48076 71.9889 0.552426 79.9905 0.0356615C89.2097 -0.481103 95.9937 4.77267 104.778 5.80619C109.649 6.40909 114.606 4.94492 119.564 4.77267C130.261 4.34203 138.698 15.3663 128.174 23.1178C124.26 25.96 119.303 26.7351 114.519 27.0796C99.0378 28.1993 83.2955 21.5675 68.423 27.0796C62.2478 29.4051 57.4643 31.7305 50.7673 30.7831C42.7657 29.6635 35.2859 26.3045 27.1974 25.5294C18.7609 24.7542 3.62747 27.0796 0.409443 16.2276C-0.634243 13.2131 0.409443 10.8877 2.49681 8.90678Z" fill="url(#paint0_linear)"/>
<defs>
<linearGradient id="paint0_linear" x1="67" y1="26.5" x2="67" y2="-1.94144e-07" gradientUnits="userSpaceOnUse">
<stop stop-color="#CAF5FF"/>
<stop offset="1" stop-color="#84FFE9"/>
</linearGradient>
</defs>
</svg>
